<?xml version="1.0" encoding="UTF-8" standalone="no"?>
<!DOCTYPE svg PUBLIC "-//W3C//DTD SVG 1.0//EN" "http://www.w3.org/TR/2001/PR-SVG-20010719/DTD/svg10.dtd">
<svg width="44cm" height="55cm" viewBox="258 112 876 1083" xmlns="http://www.w3.org/2000/svg" xmlns:xlink="http://www.w3.org/1999/xlink">
  <g>
    <ellipse style="fill: #ffffff" cx="457.977" cy="883.43" rx="92.1669" ry="54.0816"/>
    <ellipse style="fill: none; fill-opacity:0; stroke-width: 6; stroke: #c282f0" cx="457.977" cy="883.43" rx="92.1669" ry="54.0816"/>
    <text font-size="16.9333" style="fill: #000000;text-anchor:middle;font-family:sans-serif;font-style:normal;font-weight:normal" x="457.977" y="868.63">
      <tspan x="457.977" y="868.63">Early season </tspan>
      <tspan x="457.977" y="889.796">crab fishery </tspan>
      <tspan x="457.977" y="910.963"> participation</tspan>
    </text>
  </g>
  <g>
    <ellipse style="fill: #ffffff" cx="830.86" cy="881.879" rx="78.1538" ry="49.5246"/>
    <ellipse style="fill: none; fill-opacity:0; stroke-width: 6; stroke: #c282f0" cx="830.86" cy="881.879" rx="78.1538" ry="49.5246"/>
    <text font-size="16.9333" style="fill: #000000;text-anchor:middle;font-family:sans-serif;font-style:normal;font-weight:normal" x="830.86" y="867.079">
      <tspan x="830.86" y="867.079">Early season </tspan>
      <tspan x="830.86" y="888.245">other fishery </tspan>
      <tspan x="830.86" y="909.412">participation</tspan>
    </text>
  </g>
  <g>
    <ellipse style="fill: #ffffff" cx="858.638" cy="1037.53" rx="67.9379" ry="43.5668"/>
    <ellipse style="fill: none; fill-opacity:0; stroke-width: 6; stroke: #f5ecfa" cx="858.638" cy="1037.53" rx="67.9379" ry="43.5668"/>
    <text font-size="16.9333" style="fill: #000000;text-anchor:middle;font-family:sans-serif;font-style:normal;font-weight:normal" x="858.638" y="1033.31">
      <tspan x="858.638" y="1033.31">Fuel &amp; labor </tspan>
      <tspan x="858.638" y="1054.48">costs</tspan>
    </text>
  </g>
  <g>
    <ellipse style="fill: #ffffff" cx="928.22" cy="779.087" rx="47.1601" ry="49.069"/>
    <ellipse style="fill: none; fill-opacity:0; stroke-width: 6; stroke: #c282f0" cx="928.22" cy="779.087" rx="47.1601" ry="49.069"/>
    <text font-size="16.9333" style="fill: #000000;text-anchor:middle;font-family:sans-serif;font-style:normal;font-weight:normal" x="928.22" y="764.287">
      <tspan x="928.22" y="764.287"> Other </tspan>
      <tspan x="928.22" y="785.454">fishing </tspan>
      <tspan x="928.22" y="806.62">activity</tspan>
    </text>
  </g>
  <g>
    <line style="fill: none; fill-opacity:0; stroke-width: 4; stroke: #c282f0" x1="873.134" y1="837.246" x2="884.903" y2="824.82"/>
    <polygon style="fill: #c282f0" points="890.061,819.375 886.814,830.074 884.903,824.82 879.554,823.197 "/>
    <polygon style="fill: none; fill-opacity:0; stroke-width: 4; stroke: #c282f0" points="890.061,819.375 886.814,830.074 884.903,824.82 879.554,823.197 "/>
  </g>
  <g>
    <ellipse style="fill: #ffffff" cx="539.725" cy="1037.6" rx="64.6866" ry="43.6438"/>
    <ellipse style="fill: none; fill-opacity:0; stroke-width: 6; stroke: #f5ecfa" cx="539.725" cy="1037.6" rx="64.6866" ry="43.6438"/>
    <text font-size="16.9333" style="fill: #000000;text-anchor:middle;font-family:sans-serif;font-style:normal;font-weight:normal" x="539.725" y="1033.39">
      <tspan x="539.725" y="1033.39">Opening </tspan>
      <tspan x="539.725" y="1054.55">dock price</tspan>
    </text>
  </g>
  <g>
    <ellipse style="fill: #ffffff" cx="547.621" cy="592.176" rx="58.0368" ry="51.8303"/>
    <ellipse style="fill: none; fill-opacity:0; stroke-width: 6; stroke: #f5ecfa" cx="547.621" cy="592.176" rx="58.0368" ry="51.8303"/>
    <text font-size="16.9333" style="fill: #000000;text-anchor:middle;font-family:sans-serif;font-style:normal;font-weight:normal" x="547.621" y="587.96">
      <tspan x="547.621" y="587.96">Total </tspan>
      <tspan x="547.621" y="609.126">crab harvest</tspan>
    </text>
  </g>
  <g>
    <line style="fill: none; fill-opacity:0; stroke-width: 2; stroke: #6c6a6a" x1="446.813" y1="826.81" x2="427.603" y2="729.392"/>
    <polygon style="fill: #6c6a6a" points="426.153,722.033 432.993,730.877 427.603,729.392 423.182,732.812 "/>
    <polygon style="fill: none; fill-opacity:0; stroke-width: 2; stroke: #6c6a6a" points="426.153,722.033 432.993,730.877 427.603,729.392 423.182,732.812 "/>
  </g>
  <g>
    <ellipse style="fill: #ffffff" cx="465.239" cy="1124.62" rx="57.8768" ry="39.1972"/>
    <ellipse style="fill: none; fill-opacity:0; stroke-width: 4; stroke: #d8f1e3" cx="465.239" cy="1124.62" rx="57.8768" ry="39.1972"/>
    <text font-size="16.9333" style="fill: #000000;text-anchor:middle;font-family:sans-serif;font-style:normal;font-weight:normal" x="465.239" y="1120.4">
      <tspan x="465.239" y="1120.4">Crab </tspan>
      <tspan x="465.239" y="1141.57">abundance</tspan>
    </text>
  </g>
  <g>
    <ellipse style="fill: #ffffff" cx="648.4" cy="883.386" rx="89.9003" ry="54.8817"/>
    <ellipse style="fill: none; fill-opacity:0; stroke-width: 6; stroke: #c282f0" cx="648.4" cy="883.386" rx="89.9003" ry="54.8817"/>
    <text font-size="16.9333" style="fill: #000000;text-anchor:middle;font-family:sans-serif;font-style:normal;font-weight:normal" x="648.4" y="868.586">
      <tspan x="648.4" y="868.586">Late season  </tspan>
      <tspan x="648.4" y="889.752">crab fishery </tspan>
      <tspan x="648.4" y="910.919">participation</tspan>
    </text>
  </g>
  <g>
    <line style="fill: none; fill-opacity:0; stroke-width: 2; stroke: #6c6a6a" x1="516.528" y1="993.857" x2="491.322" y2="946.318"/>
    <polygon style="fill: #6c6a6a" points="487.809,939.692 496.911,946.184 491.322,946.318 488.076,950.869 "/>
    <polygon style="fill: none; fill-opacity:0; stroke-width: 2; stroke: #6c6a6a" points="487.809,939.692 496.911,946.184 491.322,946.318 488.076,950.869 "/>
  </g>
  <g>
    <line style="fill: none; fill-opacity:0; stroke-width: 2; stroke: #6c6a6a" x1="657.965" y1="825.838" x2="674.142" y2="728.5"/>
    <polygon style="fill: #6c6a6a" points="675.371,721.102 678.664,731.786 674.142,728.5 668.8,730.146 "/>
    <polygon style="fill: none; fill-opacity:0; stroke-width: 2; stroke: #6c6a6a" points="675.371,721.102 678.664,731.786 674.142,728.5 668.8,730.146 "/>
  </g>
  <g>
    <line style="fill: none; fill-opacity:0; stroke-width: 2; stroke: #6c6a6a" x1="811.487" y1="1002.96" x2="707.94" y2="927.039"/>
    <path style="fill: #6c6a6a" d="M 707.94 927.039 C 709.418,925.023 712.913,924.485 714.929,925.963 C 716.945,927.441 717.483,930.936 716.005,932.952 C 714.527,934.968 711.032,935.506 709.016,934.028 C 707,932.549 706.462,929.055 707.94,927.039z"/>
    <path style="fill: none; fill-opacity:0; stroke-width: 2; stroke: #6c6a6a" d="M 707.94 927.039 C 709.418,925.023 712.913,924.485 714.929,925.963 C 716.945,927.441 717.483,930.936 716.005,932.952 C 714.527,934.968 711.032,935.506 709.016,934.028 C 707,932.549 706.462,929.055 707.94,927.039"/>
  </g>
  <g>
    <ellipse style="fill: #ffffff" cx="696.681" cy="1038.66" rx="69.4295" ry="48.0759"/>
    <ellipse style="fill: none; fill-opacity:0; stroke-width: 6; stroke: #f5ecfa" cx="696.681" cy="1038.66" rx="69.4295" ry="48.0759"/>
    <text font-size="16.9333" style="fill: #000000;text-anchor:middle;font-family:sans-serif;font-style:normal;font-weight:normal" x="696.681" y="1023.86">
      <tspan x="696.681" y="1023.86">Crab </tspan>
      <tspan x="696.681" y="1045.03">processing </tspan>
      <tspan x="696.681" y="1066.2">capacity</tspan>
    </text>
  </g>
  <g>
    <line style="fill: none; fill-opacity:0; stroke-width: 2; stroke: #6c6a6a" x1="681.178" y1="988.802" x2="668.937" y2="949.433"/>
    <polygon style="fill: #6c6a6a" points="666.71,942.271 674.454,950.335 668.937,949.433 664.905,953.305 "/>
    <polygon style="fill: none; fill-opacity:0; stroke-width: 2; stroke: #6c6a6a" points="666.71,942.271 674.454,950.335 668.937,949.433 664.905,953.305 "/>
  </g>
  <g>
    <line style="fill: none; fill-opacity:0; stroke-width: 2; stroke: #6c6a6a" x1="638.41" y1="1008.51" x2="501.895" y2="937.868"/>
    <polygon style="fill: #6c6a6a" points="495.234,934.422 506.413,934.577 501.895,937.868 501.817,943.458 "/>
    <polygon style="fill: none; fill-opacity:0; stroke-width: 2; stroke: #6c6a6a" points="495.234,934.422 506.413,934.577 501.895,937.868 501.817,943.458 "/>
  </g>
  <g>
    <ellipse style="fill: #ffffff" cx="1043.1" cy="883.274" rx="87.6818" ry="51.0377"/>
    <ellipse style="fill: none; fill-opacity:0; stroke-width: 6; stroke: #c282f0" cx="1043.1" cy="883.274" rx="87.6818" ry="51.0377"/>
    <text font-size="16.9333" style="fill: #000000;text-anchor:middle;font-family:sans-serif;font-style:normal;font-weight:normal" x="1043.1" y="868.474">
      <tspan x="1043.1" y="868.474">Late season</tspan>
      <tspan x="1043.1" y="889.64">  other fishery </tspan>
      <tspan x="1043.1" y="910.807">participation</tspan>
    </text>
  </g>
  <g>
    <ellipse style="fill: #ffffff" cx="549.954" cy="773.341" rx="48.4602" ry="49.0234"/>
    <ellipse style="fill: none; fill-opacity:0; stroke-width: 6; stroke: #c282f0" cx="549.954" cy="773.341" rx="48.4602" ry="49.0234"/>
    <text font-size="16.9333" style="fill: #000000;text-anchor:middle;font-family:sans-serif;font-style:normal;font-weight:normal" x="549.954" y="758.541">
      <tspan x="549.954" y="758.541">Crab </tspan>
      <tspan x="549.954" y="779.708">fishing </tspan>
      <tspan x="549.954" y="800.875">activity</tspan>
    </text>
  </g>
  <g>
    <ellipse style="fill: #ffffff" cx="414.384" cy="662.35" rx="60.5681" ry="55.4219"/>
    <ellipse style="fill: none; fill-opacity:0; stroke-width: 6; stroke: #f5ecfa" cx="414.384" cy="662.35" rx="60.5681" ry="55.4219"/>
    <text font-size="16.9333" style="fill: #000000;text-anchor:middle;font-family:sans-serif;font-style:normal;font-weight:normal" x="414.384" y="658.133">
      <tspan x="414.384" y="658.133">Early season </tspan>
      <tspan x="414.384" y="679.3">crab harvest</tspan>
    </text>
  </g>
  <g>
    <ellipse style="fill: #ffffff" cx="684.498" cy="666.187" rx="71.502" ry="50.1868"/>
    <ellipse style="fill: none; fill-opacity:0; stroke-width: 6; stroke: #f5ecfa" cx="684.498" cy="666.187" rx="71.502" ry="50.1868"/>
    <text font-size="16.9333" style="fill: #000000;text-anchor:middle;font-family:sans-serif;font-style:normal;font-weight:normal" x="684.498" y="661.97">
      <tspan x="684.498" y="661.97">Late season </tspan>
      <tspan x="684.498" y="683.137">crab harvest</tspan>
    </text>
  </g>
  <g>
    <line style="fill: none; fill-opacity:0; stroke-width: 4; stroke: #e6d1f5" x1="469.528" y1="633.307" x2="484.389" y2="625.48"/>
    <polygon style="fill: #e6d1f5" points="491.025,621.985 484.507,631.069 484.389,625.48 479.847,622.221 "/>
    <polygon style="fill: none; fill-opacity:0; stroke-width: 4; stroke: #e6d1f5" points="491.025,621.985 484.507,631.069 484.389,625.48 479.847,622.221 "/>
  </g>
  <g>
    <line style="fill: none; fill-opacity:0; stroke-width: 4; stroke: #e6d1f5" x1="625.207" y1="634.128" x2="610.433" y2="626.14"/>
    <polygon style="fill: #e6d1f5" points="603.836,622.572 615.011,622.93 610.433,626.14 610.254,631.727 "/>
    <polygon style="fill: none; fill-opacity:0; stroke-width: 4; stroke: #e6d1f5" points="603.836,622.572 615.011,622.93 610.433,626.14 610.254,631.727 "/>
  </g>
  <g>
    <ellipse style="fill: #ffffff" cx="922.944" cy="665.693" rx="62.6044" ry="50.8006"/>
    <ellipse style="fill: none; fill-opacity:0; stroke-width: 6; stroke: #f5ecfa" cx="922.944" cy="665.693" rx="62.6044" ry="50.8006"/>
    <text font-size="16.9333" style="fill: #000000;text-anchor:middle;font-family:sans-serif;font-style:normal;font-weight:normal" x="922.944" y="661.476">
      <tspan x="922.944" y="661.476">Total  </tspan>
      <tspan x="922.944" y="682.643">other harvest</tspan>
    </text>
  </g>
  <g>
    <line style="fill: none; fill-opacity:0; stroke-width: 2; stroke: #6c6a6a" x1="839.942" y1="829.702" x2="863.436" y2="694.726"/>
    <polygon style="fill: #6c6a6a" points="864.723,687.337 867.934,698.046 863.436,694.726 858.082,696.331 "/>
    <polygon style="fill: none; fill-opacity:0; stroke-width: 2; stroke: #6c6a6a" points="864.723,687.337 867.934,698.046 863.436,694.726 858.082,696.331 "/>
  </g>
  <g>
    <line style="fill: none; fill-opacity:0; stroke-width: 4; stroke: #c282f0" x1="500.468" y1="832.572" x2="509.078" y2="822.267"/>
    <polygon style="fill: #c282f0" points="513.887,816.511 511.312,827.391 509.078,822.267 503.638,820.979 "/>
    <polygon style="fill: none; fill-opacity:0; stroke-width: 4; stroke: #c282f0" points="513.887,816.511 511.312,827.391 509.078,822.267 503.638,820.979 "/>
  </g>
  <g>
    <line style="fill: none; fill-opacity:0; stroke-width: 4; stroke: #c282f0" x1="603.305" y1="832.978" x2="592.456" y2="820.851"/>
    <polygon style="fill: #c282f0" points="587.456,815.261 597.85,819.38 592.456,820.851 590.397,826.048 "/>
    <polygon style="fill: none; fill-opacity:0; stroke-width: 4; stroke: #c282f0" points="587.456,815.261 597.85,819.38 592.456,820.851 590.397,826.048 "/>
  </g>
  <g>
    <line style="fill: none; fill-opacity:0; stroke-width: 2; stroke: #6c6a6a" x1="859.539" y1="991.058" x2="860.768" y2="927.634"/>
    <path style="fill: #6c6a6a" d="M 860.768 927.634 C 863.268,927.682 865.719,930.23 865.67,932.73 C 865.622,935.229 863.074,937.681 860.574,937.632 C 858.075,937.584 855.624,935.036 855.672,932.536 C 855.72,930.037 858.268,927.586 860.768,927.634z"/>
    <path style="fill: none; fill-opacity:0; stroke-width: 2; stroke: #6c6a6a" d="M 860.768 927.634 C 863.268,927.682 865.719,930.23 865.67,932.73 C 865.622,935.229 863.074,937.681 860.574,937.632 C 858.075,937.584 855.624,935.036 855.672,932.536 C 855.72,930.037 858.268,927.586 860.768,927.634"/>
  </g>
  <g>
    <line style="fill: none; fill-opacity:0; stroke-width: 2; stroke: #6c6a6a" x1="902.282" y1="1001.03" x2="990.712" y2="927.081"/>
    <path style="fill: #6c6a6a" d="M 990.712 927.081 C 992.316,928.999 992.002,932.52 990.084,934.124 C 988.166,935.728 984.644,935.414 983.041,933.496 C 981.437,931.578 981.751,928.057 983.669,926.453 C 985.586,924.849 989.108,925.163 990.712,927.081z"/>
    <path style="fill: none; fill-opacity:0; stroke-width: 2; stroke: #6c6a6a" d="M 990.712 927.081 C 992.316,928.999 992.002,932.52 990.084,934.124 C 988.166,935.728 984.644,935.414 983.041,933.496 C 981.437,931.578 981.751,928.057 983.669,926.453 C 985.586,924.849 989.108,925.163 990.712,927.081"/>
  </g>
  <g>
    <line style="fill: none; fill-opacity:0; stroke-width: 4; stroke: #c282f0" x1="993.624" y1="838.404" x2="974.853" y2="821.38"/>
    <polygon style="fill: #c282f0" points="969.297,816.341 980.063,819.356 974.853,821.38 973.345,826.763 "/>
    <polygon style="fill: none; fill-opacity:0; stroke-width: 4; stroke: #c282f0" points="969.297,816.341 980.063,819.356 974.853,821.38 973.345,826.763 "/>
  </g>
  <g>
    <polyline style="fill: none; fill-opacity:0; stroke-width: 4; stroke-dasharray: 4; stroke: #c282f0" points="422.706,933.394 422.706,975.886 800.952,975.886 800.952,927.634 "/>
    <path style="fill: #c282f0" d="M 800.952 927.634 C 803.452,927.634 805.952,930.134 805.952,932.634 C 805.952,935.134 803.452,937.634 800.952,937.634 C 798.452,937.634 795.952,935.134 795.952,932.634 C 795.952,930.134 798.452,927.634 800.952,927.634z"/>
    <path style="fill: none; fill-opacity:0; stroke-width: 4; stroke: #c282f0" d="M 800.952 927.634 C 803.452,927.634 805.952,930.134 805.952,932.634 C 805.952,935.134 803.452,937.634 800.952,937.634 C 798.452,937.634 795.952,935.134 795.952,932.634 C 795.952,930.134 798.452,927.634 800.952,927.634"/>
  </g>
  <g>
    <polyline style="fill: none; fill-opacity:0; stroke-width: 4; stroke: #c282f0" points="682.804,934.09 682.804,956.311 1043.1,956.311 1043.1,934.311 "/>
    <path style="fill: #c282f0" d="M 682.804 934.09 C 685.304,934.09 687.804,936.59 687.804,939.09 C 687.804,941.59 685.304,944.09 682.804,944.09 C 680.304,944.09 677.804,941.59 677.804,939.09 C 677.804,936.59 680.304,934.09 682.804,934.09z"/>
    <path style="fill: none; fill-opacity:0; stroke-width: 4; stroke: #c282f0" d="M 682.804 934.09 C 685.304,934.09 687.804,936.59 687.804,939.09 C 687.804,941.59 685.304,944.09 682.804,944.09 C 680.304,944.09 677.804,941.59 677.804,939.09 C 677.804,936.59 680.304,934.09 682.804,934.09"/>
    <path style="fill: #c282f0" d="M 1043.1 934.311 C 1045.6,934.311 1048.1,936.811 1048.1,939.311 C 1048.1,941.811 1045.6,944.311 1043.1,944.311 C 1040.6,944.311 1038.1,941.811 1038.1,939.311 C 1038.1,936.811 1040.6,934.311 1043.1,934.311z"/>
    <path style="fill: none; fill-opacity:0; stroke-width: 4; stroke: #c282f0" d="M 1043.1 934.311 C 1045.6,934.311 1048.1,936.811 1048.1,939.311 C 1048.1,941.811 1045.6,944.311 1043.1,944.311 C 1040.6,944.311 1038.1,941.811 1038.1,939.311 C 1038.1,936.811 1040.6,934.311 1043.1,934.311"/>
  </g>
  <g>
    <line style="fill: none; fill-opacity:0; stroke-width: 2; stroke: #6c6a6a" x1="1026.42" y1="830.232" x2="983.705" y2="694.422"/>
    <polygon style="fill: #6c6a6a" points="981.455,687.267 989.225,695.306 983.705,694.422 979.685,698.306 "/>
    <polygon style="fill: none; fill-opacity:0; stroke-width: 2; stroke: #6c6a6a" points="981.455,687.267 989.225,695.306 983.705,694.422 979.685,698.306 "/>
  </g>
  <g>
    <ellipse style="fill: #ffffff" cx="396.273" cy="1036.25" rx="65.8668" ry="42.2874"/>
    <ellipse style="fill: none; fill-opacity:0; stroke-width: 6; stroke: #f5ecfa" cx="396.273" cy="1036.25" rx="65.8668" ry="42.2874"/>
    <text font-size="16.9333" style="fill: #000000;text-anchor:middle;font-family:sans-serif;font-style:normal;font-weight:normal" x="396.273" y="1032.03">
      <tspan x="396.273" y="1032.03"> Crew </tspan>
      <tspan x="396.273" y="1053.2">availability</tspan>
    </text>
  </g>
  <g>
    <line style="fill: none; fill-opacity:0; stroke-width: 2; stroke: #6c6a6a" x1="413.898" y1="992.599" x2="431.957" y2="947.872"/>
    <polygon style="fill: #6c6a6a" points="434.765,940.918 435.658,952.062 431.957,947.872 426.385,948.318 "/>
    <polygon style="fill: none; fill-opacity:0; stroke-width: 2; stroke: #6c6a6a" points="434.765,940.918 435.658,952.062 431.957,947.872 426.385,948.318 "/>
  </g>
  <g>
    <polyline style="fill: none; fill-opacity:0; stroke-width: 2; stroke: #6c6a6a" points="486.611,592.176 299.338,592.176 299.338,1124.62 407.362,1124.62 "/>
    <path style="fill: #6c6a6a" d="M 407.362 1124.62 C 407.362,1127.12 404.862,1129.62 402.362,1129.62 C 399.862,1129.62 397.362,1127.12 397.362,1124.62 C 397.362,1122.12 399.862,1119.62 402.362,1119.62 C 404.862,1119.62 407.362,1122.12 407.362,1124.62z"/>
    <path style="fill: none; fill-opacity:0; stroke-width: 2; stroke: #6c6a6a" d="M 407.362 1124.62 C 407.362,1127.12 404.862,1129.62 402.362,1129.62 C 399.862,1129.62 397.362,1127.12 397.362,1124.62 C 397.362,1122.12 399.862,1119.62 402.362,1119.62 C 404.862,1119.62 407.362,1122.12 407.362,1124.62"/>
  </g>
  <g>
    <polyline style="fill: none; fill-opacity:0; stroke-width: 2; stroke: #6c6a6a" points="523.116,1124.62 613.997,1124.62 613.997,943.826 "/>
    <polygon style="fill: #6c6a6a" points="613.997,936.326 618.997,946.326 613.997,943.826 608.997,946.326 "/>
    <polygon style="fill: none; fill-opacity:0; stroke-width: 2; stroke: #6c6a6a" points="613.997,936.326 618.997,946.326 613.997,943.826 608.997,946.326 "/>
  </g>
  <g>
    <ellipse style="fill: #ffffff" cx="435.235" cy="353.879" rx="76.8234" ry="44.4965"/>
    <ellipse style="fill: none; fill-opacity:0; stroke-width: 6; stroke: #c7edfa" cx="435.235" cy="353.879" rx="76.8234" ry="44.4965"/>
    <text font-size="16.9333" style="fill: #000000;text-anchor:middle;font-family:sans-serif;font-style:normal;font-weight:normal" x="435.235" y="349.662">
      <tspan x="435.235" y="349.662">Material wealth </tspan>
      <tspan x="435.235" y="370.829">&amp; security</tspan>
    </text>
  </g>
  <g>
    <line style="fill: none; fill-opacity:0; stroke-width: 2; stroke: #6c6a6a" x1="547.62" y1="540.346" x2="469.461" y2="403.443"/>
    <polygon style="fill: #6c6a6a" points="465.743,396.93 475.043,403.135 469.461,403.443 466.358,408.093 "/>
    <polygon style="fill: none; fill-opacity:0; stroke-width: 2; stroke: #6c6a6a" points="465.743,396.93 475.043,403.135 469.461,403.443 466.358,408.093 "/>
  </g>
  <g>
    <line style="fill: none; fill-opacity:0; stroke-width: 2; stroke: #6c6a6a" x1="922.944" y1="614.892" x2="473.412" y2="399.2"/>
    <polygon style="fill: #6c6a6a" points="466.65,395.955 477.829,395.773 473.412,399.2 473.503,404.789 "/>
    <polygon style="fill: none; fill-opacity:0; stroke-width: 2; stroke: #6c6a6a" points="466.65,395.955 477.829,395.773 473.412,399.2 473.503,404.789 "/>
  </g>
  <g>
    <polyline style="fill: none; fill-opacity:0; stroke-width: 2; stroke: #6c6a6a" points="926.576,1037.53 947.576,1037.53 947.576,1194.38 259.412,1194.38 259.412,353.878 358.412,353.878 "/>
    <path style="fill: #6c6a6a" d="M 358.412 353.878 C 358.412,356.378 355.912,358.878 353.412,358.878 C 350.912,358.878 348.412,356.378 348.412,353.878 C 348.412,351.378 350.912,348.878 353.412,348.878 C 355.912,348.878 358.412,351.378 358.412,353.878z"/>
    <path style="fill: none; fill-opacity:0; stroke-width: 2; stroke: #6c6a6a" d="M 358.412 353.878 C 358.412,356.378 355.912,358.878 353.412,358.878 C 350.912,358.878 348.412,356.378 348.412,353.878 C 348.412,351.378 350.912,348.878 353.412,348.878 C 355.912,348.878 358.412,351.378 358.412,353.878"/>
  </g>
  <g>
    <ellipse style="fill: #ffffff" cx="600.619" cy="366.607" rx="71.2073" ry="30.6074"/>
    <ellipse style="fill: none; fill-opacity:0; stroke-width: 6; stroke: #c7edfa" cx="600.619" cy="366.607" rx="71.2073" ry="30.6074"/>
    <text font-size="16.9333" style="fill: #000000;text-anchor:middle;font-family:sans-serif;font-style:normal;font-weight:normal" x="600.619" y="372.974">
      <tspan x="600.619" y="372.974">Subsistence</tspan>
    </text>
  </g>
  <g>
    <ellipse style="fill: #ffffff" cx="754.568" cy="353.756" rx="63.1564" ry="45.3745"/>
    <ellipse style="fill: none; fill-opacity:0; stroke-width: 6; stroke: #c7edfa" cx="754.568" cy="353.756" rx="63.1564" ry="45.3745"/>
    <text font-size="16.9333" style="fill: #000000;text-anchor:middle;font-family:sans-serif;font-style:normal;font-weight:normal" x="754.568" y="338.956">
      <tspan x="754.568" y="338.956">Cultural </tspan>
      <tspan x="754.568" y="360.123">values &amp; </tspan>
      <tspan x="754.568" y="381.29">practices</tspan>
    </text>
  </g>
  <g>
    <ellipse style="fill: #ffffff" cx="885.55" cy="372.998" rx="45.5939" ry="20.6155"/>
    <ellipse style="fill: none; fill-opacity:0; stroke-width: 6; stroke: #c7edfa" cx="885.55" cy="372.998" rx="45.5939" ry="20.6155"/>
    <text font-size="16.9333" style="fill: #000000;text-anchor:middle;font-family:sans-serif;font-style:normal;font-weight:normal" x="885.55" y="379.364">
      <tspan x="885.55" y="379.364">Identity</tspan>
    </text>
  </g>
  <g>
    <line style="fill: none; fill-opacity:0; stroke-width: 2; stroke: #6c6a6a" x1="547.62" y1="540.346" x2="597.239" y2="406.344"/>
    <polygon style="fill: #6c6a6a" points="599.844,399.311 601.06,410.425 597.239,406.344 591.682,406.952 "/>
    <polygon style="fill: none; fill-opacity:0; stroke-width: 2; stroke: #6c6a6a" points="599.844,399.311 601.06,410.425 597.239,406.344 591.682,406.952 "/>
  </g>
  <g>
    <line style="fill: none; fill-opacity:0; stroke-width: 2; stroke: #6c6a6a" x1="922.944" y1="614.892" x2="608.688" y2="402.663"/>
    <polygon style="fill: #6c6a6a" points="602.473,398.465 613.559,399.919 608.688,402.663 607.962,408.206 "/>
    <polygon style="fill: none; fill-opacity:0; stroke-width: 2; stroke: #6c6a6a" points="602.473,398.465 613.559,399.919 608.688,402.663 607.962,408.206 "/>
  </g>
  <g>
    <polyline style="fill: none; fill-opacity:0; stroke-width: 2; stroke: #6c6a6a" points="371.556,623.16 273.252,623.16 273.252,466.382 754.568,466.382 754.568,408.868 "/>
    <polygon style="fill: #6c6a6a" points="754.568,401.368 759.568,411.368 754.568,408.868 749.568,411.368 "/>
    <polygon style="fill: none; fill-opacity:0; stroke-width: 2; stroke: #6c6a6a" points="754.568,401.368 759.568,411.368 754.568,408.868 749.568,411.368 "/>
  </g>
  <g>
    <polyline style="fill: none; fill-opacity:0; stroke-width: 2; stroke: #6c6a6a" points="598.414,773.342 813.412,773.342 813.412,387.576 843.574,387.576 "/>
    <polygon style="fill: #6c6a6a" points="851.074,387.576 841.074,392.576 843.574,387.576 841.074,382.576 "/>
    <polygon style="fill: none; fill-opacity:0; stroke-width: 2; stroke: #6c6a6a" points="851.074,387.576 841.074,392.576 843.574,387.576 841.074,382.576 "/>
  </g>
  <g>
    <ellipse style="fill: #ffffff" cx="643.75" cy="162.687" rx="112.492" ry="28.1229"/>
    <ellipse style="fill: none; fill-opacity:0; stroke-width: 6; stroke: #6fb4ca" cx="643.75" cy="162.687" rx="112.492" ry="28.1229"/>
    <text font-size="16.9333" style="fill: #000000;text-anchor:middle;font-family:sans-serif;font-style:normal;font-weight:normal" x="643.75" y="158.47">
      <tspan x="643.75" y="158.47">Emotional &amp; </tspan>
      <tspan x="643.75" y="179.637">mental health</tspan>
    </text>
  </g>
  <g>
    <ellipse style="fill: #ffffff" cx="1014.14" cy="339.845" rx="80.9876" ry="54.2168"/>
    <ellipse style="fill: none; fill-opacity:0; stroke-width: 6; stroke: #c7edfa" cx="1014.14" cy="339.845" rx="80.9876" ry="54.2168"/>
    <text font-size="16.9333" style="fill: #000000;text-anchor:middle;font-family:sans-serif;font-style:normal;font-weight:normal" x="1014.14" y="325.045">
      <tspan x="1014.14" y="325.045">Intangible </tspan>
      <tspan x="1014.14" y="346.211">connections to </tspan>
      <tspan x="1014.14" y="367.378">nature</tspan>
    </text>
  </g>
  <g>
    <line style="fill: none; fill-opacity:0; stroke-width: 2; stroke: #6fb4ca" x1="939.32" y1="360.592" x2="730.806" y2="188.764"/>
    <polygon style="fill: #6fb4ca" points="725.018,183.995 735.915,186.495 730.806,188.764 729.555,194.213 "/>
    <polygon style="fill: none; fill-opacity:0; stroke-width: 2; stroke: #6fb4ca" points="725.018,183.995 735.915,186.495 730.806,188.764 729.555,194.213 "/>
  </g>
  <g>
    <line style="fill: none; fill-opacity:0; stroke-width: 2; stroke: #6fb4ca" x1="853.31" y1="358.42" x2="729.08" y2="190.401"/>
    <polygon style="fill: #6fb4ca" points="724.621,184.371 734.587,189.439 729.08,190.401 726.546,195.384 "/>
    <polygon style="fill: none; fill-opacity:0; stroke-width: 2; stroke: #6fb4ca" points="724.621,184.371 734.587,189.439 729.08,190.401 726.546,195.384 "/>
  </g>
  <g>
    <line style="fill: none; fill-opacity:0; stroke-width: 2; stroke: #6fb4ca" x1="458.034" y1="308.484" x2="526.888" y2="171.387"/>
    <polygon style="fill: #6fb4ca" points="530.254,164.685 530.234,175.865 526.888,171.387 521.298,171.377 "/>
    <polygon style="fill: none; fill-opacity:0; stroke-width: 2; stroke: #6fb4ca" points="530.254,164.685 530.234,175.865 526.888,171.387 521.298,171.377 "/>
  </g>
  <g>
    <polyline style="fill: none; fill-opacity:0; stroke-width: 2; stroke: #6c6a6a" points="371.556,623.16 269.01,623.16 269.01,208.382 564.206,208.382 564.206,192.309 "/>
    <polygon style="fill: #6c6a6a" points="564.206,184.809 569.206,194.809 564.206,192.309 559.206,194.809 "/>
    <polygon style="fill: none; fill-opacity:0; stroke-width: 2; stroke: #6c6a6a" points="564.206,184.809 569.206,194.809 564.206,192.309 559.206,194.809 "/>
  </g>
  <g>
    <ellipse style="fill: #ffffff" cx="695.473" cy="238.337" rx="55.0612" ry="26.2492"/>
    <ellipse style="fill: none; fill-opacity:0; stroke-width: 6; stroke: #9cf0fb" cx="695.473" cy="238.337" rx="55.0612" ry="26.2492"/>
    <text font-size="16.9333" style="fill: #000000;text-anchor:middle;font-family:sans-serif;font-style:normal;font-weight:normal" x="695.473" y="244.704">
      <tspan x="695.473" y="244.704">Community</tspan>
    </text>
  </g>
  <g>
    <line style="fill: none; fill-opacity:0; stroke-width: 2; stroke: #6fb4ca" x1="627.87" y1="338.33" x2="669.306" y2="270.884"/>
    <polygon style="fill: #6fb4ca" points="673.232,264.493 672.257,275.631 669.306,270.884 663.737,270.396 "/>
    <polygon style="fill: none; fill-opacity:0; stroke-width: 2; stroke: #6fb4ca" points="673.232,264.493 672.257,275.631 669.306,270.884 663.737,270.396 "/>
  </g>
  <g>
    <line style="fill: none; fill-opacity:0; stroke-width: 2; stroke: #6fb4ca" x1="754.568" y1="308.382" x2="722.764" y2="270.079"/>
    <polygon style="fill: #6fb4ca" points="717.972,264.308 728.207,268.808 722.764,270.079 720.514,275.196 "/>
    <polygon style="fill: none; fill-opacity:0; stroke-width: 2; stroke: #6fb4ca" points="717.972,264.308 728.207,268.808 722.764,270.079 720.514,275.196 "/>
  </g>
  <g>
    <ellipse style="fill: #ffffff" cx="920.601" cy="156.706" rx="65.4552" ry="40.7534"/>
    <ellipse style="fill: none; fill-opacity:0; stroke-width: 6; stroke: #6fb4ca" cx="920.601" cy="156.706" rx="65.4552" ry="40.7534"/>
    <text font-size="16.9333" style="fill: #000000;text-anchor:middle;font-family:sans-serif;font-style:normal;font-weight:normal" x="920.601" y="152.489">
      <tspan x="920.601" y="152.489">Social </tspan>
      <tspan x="920.601" y="173.656">relationships</tspan>
    </text>
  </g>
  <g>
    <ellipse style="fill: #ffffff" cx="893.463" cy="256.723" rx="55.0612" ry="26.2492"/>
    <ellipse style="fill: none; fill-opacity:0; stroke-width: 6; stroke: #9cf0fb" cx="893.463" cy="256.723" rx="55.0612" ry="26.2492"/>
    <text font-size="16.9333" style="fill: #000000;text-anchor:middle;font-family:sans-serif;font-style:normal;font-weight:normal" x="893.463" y="263.09">
      <tspan x="893.463" y="263.09">Family</tspan>
    </text>
  </g>
  <g>
    <line style="fill: none; fill-opacity:0; stroke-width: 2; stroke: #6fb4ca" x1="846.202" y1="233.118" x2="756.006" y2="178.492"/>
    <polygon style="fill: #6fb4ca" points="852.617,237.004 841.474,236.1 846.202,233.118 846.654,227.546 "/>
    <polygon style="fill: none; fill-opacity:0; stroke-width: 2; stroke: #6fb4ca" points="852.617,237.004 841.474,236.1 846.202,233.118 846.654,227.546 "/>
    <polygon style="fill: #6fb4ca" points="749.591,174.607 760.734,175.511 756.006,178.492 755.554,184.064 "/>
    <polygon style="fill: none; fill-opacity:0; stroke-width: 2; stroke: #6fb4ca" points="749.591,174.607 760.734,175.511 756.006,178.492 755.554,184.064 "/>
  </g>
  <g>
    <line style="fill: none; fill-opacity:0; stroke-width: 2; stroke: #6fb4ca" x1="750.534" y1="238.338" x2="886.235" y2="197.183"/>
    <polygon style="fill: #6fb4ca" points="893.412,195.006 885.294,202.693 886.235,197.183 882.391,193.123 "/>
    <polygon style="fill: none; fill-opacity:0; stroke-width: 2; stroke: #6fb4ca" points="893.412,195.006 885.294,202.693 886.235,197.183 882.391,193.123 "/>
  </g>
  <g>
    <line style="fill: none; fill-opacity:0; stroke-width: 2; stroke: #6fb4ca" x1="894.443" y1="227.481" x2="895.226" y2="204.088"/>
    <polygon style="fill: #6fb4ca" points="895.477,196.592 900.14,206.754 895.226,204.088 890.145,206.419 "/>
    <polygon style="fill: none; fill-opacity:0; stroke-width: 2; stroke: #6fb4ca" points="895.477,196.592 900.14,206.754 895.226,204.088 890.145,206.419 "/>
  </g>
  <g>
    <polyline style="fill: none; fill-opacity:0; stroke-width: 2; stroke: #6c6a6a" points="594.726,754.582 794.598,754.582 794.598,450.212 983.15,450.212 983.15,399.67 "/>
    <polygon style="fill: #6c6a6a" points="983.15,392.17 988.15,402.17 983.15,399.67 978.15,402.17 "/>
    <polygon style="fill: none; fill-opacity:0; stroke-width: 2; stroke: #6c6a6a" points="983.15,392.17 988.15,402.17 983.15,399.67 978.15,402.17 "/>
  </g>
  <g>
    <polyline style="fill: none; fill-opacity:0; stroke-width: 2; stroke: #6c6a6a" points="975.38,779.087 1014.14,779.087 1014.14,403.798 "/>
    <polygon style="fill: #6c6a6a" points="1014.14,396.298 1019.14,406.298 1014.14,403.798 1009.14,406.298 "/>
    <polygon style="fill: none; fill-opacity:0; stroke-width: 2; stroke: #6c6a6a" points="1014.14,396.298 1019.14,406.298 1014.14,403.798 1009.14,406.298 "/>
  </g>
  <g>
    <polyline style="fill: none; fill-opacity:0; stroke-width: 2; stroke: #6c6a6a" points="881.06,779.086 815.598,779.086 815.598,387.576 843.574,387.576 "/>
    <polygon style="fill: #6c6a6a" points="851.074,387.576 841.074,392.576 843.574,387.576 841.074,382.576 "/>
    <polygon style="fill: none; fill-opacity:0; stroke-width: 2; stroke: #6c6a6a" points="851.074,387.576 841.074,392.576 843.574,387.576 841.074,382.576 "/>
  </g>
</svg>
