<?xml version="1.0" encoding="UTF-8" standalone="no"?>
<!DOCTYPE svg PUBLIC "-//W3C//DTD SVG 1.0//EN" "http://www.w3.org/TR/2001/PR-SVG-20010719/DTD/svg10.dtd">
<svg width="75cm" height="57cm" viewBox="-349 -49 1494 1137" xmlns="http://www.w3.org/2000/svg" xmlns:xlink="http://www.w3.org/1999/xlink">
  <g>
    <ellipse style="fill: #e6d1f5" cx="358.578" cy="895.068" rx="95.3201" ry="51.172"/>
    <ellipse style="fill: none; fill-opacity:0; stroke-width: 2; stroke: #000000" cx="358.578" cy="895.068" rx="95.3201" ry="51.172"/>
    <text font-size="19.7556" style="fill: #000000;text-anchor:middle;font-family:sans-serif;font-style:normal;font-weight:normal" x="358.578" y="877.776">
      <tspan x="358.578" y="877.776">Recreational </tspan>
      <tspan x="358.578" y="902.471">fishery </tspan>
      <tspan x="358.578" y="927.165">participation</tspan>
    </text>
  </g>
  <g>
    <ellipse style="fill: #f5ecfa" cx="441.071" cy="666.072" rx="73.6226" ry="46.9896"/>
    <ellipse style="fill: none; fill-opacity:0; stroke-width: 2; stroke: #000000" cx="441.071" cy="666.072" rx="73.6226" ry="46.9896"/>
    <text font-size="19.7556" style="fill: #000000;text-anchor:middle;font-family:sans-serif;font-style:normal;font-weight:normal" x="441.071" y="661.127">
      <tspan x="441.071" y="661.127">Recreational </tspan>
      <tspan x="441.071" y="685.822">harvest</tspan>
    </text>
  </g>
  <g>
    <line style="fill: none; fill-opacity:0; stroke-width: 2; stroke: #c282f0" x1="377.011" y1="843.899" x2="422.758" y2="716.906"/>
    <polyline style="fill: none; fill-opacity:0; stroke-width: 2; stroke: #c282f0" points="424.831,725.905 423.516,714.802 415.423,722.516 "/>
  </g>
  <g>
    <ellipse style="fill: #d2ebf3" cx="620.85" cy="432.926" rx="106.544" ry="35.0482"/>
    <ellipse style="fill: none; fill-opacity:0; stroke-width: 2; stroke: #000000" cx="620.85" cy="432.926" rx="106.544" ry="35.0482"/>
    <text font-size="19.7556" style="fill: #000000;text-anchor:middle;font-family:sans-serif;font-style:normal;font-weight:normal" x="620.85" y="427.982">
      <tspan x="620.85" y="427.982">Cultural values</tspan>
      <tspan x="620.85" y="452.676">&amp; practices</tspan>
    </text>
  </g>
  <g>
    <ellipse style="fill: #d2ebf3" cx="366.831" cy="460.87" rx="142.657" ry="39.796"/>
    <ellipse style="fill: none; fill-opacity:0; stroke-width: 2; stroke: #000000" cx="366.831" cy="460.87" rx="142.657" ry="39.796"/>
    <text font-size="19.7556" style="fill: #000000;text-anchor:middle;font-family:sans-serif;font-style:normal;font-weight:normal" x="366.831" y="455.926">
      <tspan x="366.831" y="455.926">Intangible connections </tspan>
      <tspan x="366.831" y="480.62">to nature</tspan>
    </text>
  </g>
  <g>
    <ellipse style="fill: #d2ebf3" cx="-141.778" cy="461.631" rx="82.3817" ry="47.3269"/>
    <ellipse style="fill: none; fill-opacity:0; stroke-width: 2; stroke: #000000" cx="-141.778" cy="461.631" rx="82.3817" ry="47.3269"/>
    <text font-size="19.7556" style="fill: #000000;text-anchor:middle;font-family:sans-serif;font-style:normal;font-weight:normal" x="-141.778" y="444.339">
      <tspan x="-141.778" y="444.339">Material </tspan>
      <tspan x="-141.778" y="469.034">wealth &amp; </tspan>
      <tspan x="-141.778" y="493.728">security</tspan>
    </text>
  </g>
  <g>
    <ellipse style="fill: #d2ebf3" cx="903.624" cy="444.811" rx="46.4884" ry="24.0588"/>
    <ellipse style="fill: none; fill-opacity:0; stroke-width: 2; stroke: #000000" cx="903.624" cy="444.811" rx="46.4884" ry="24.0588"/>
    <text font-size="19.7556" style="fill: #000000;text-anchor:middle;font-family:sans-serif;font-style:normal;font-weight:normal" x="903.624" y="452.214">
      <tspan x="903.624" y="452.214">Identity</tspan>
    </text>
  </g>
  <g>
    <ellipse style="fill: #d2ebf3" cx="81.9466" cy="225.545" rx="70.3801" ry="43.4748"/>
    <ellipse style="fill: none; fill-opacity:0; stroke-width: 2; stroke: #000000" cx="81.9466" cy="225.545" rx="70.3801" ry="43.4748"/>
    <text font-size="19.7556" style="fill: #000000;text-anchor:middle;font-family:sans-serif;font-style:normal;font-weight:normal" x="81.9466" y="220.6">
      <tspan x="81.9466" y="220.6">Job </tspan>
      <tspan x="81.9466" y="245.295">satisfaction</tspan>
    </text>
  </g>
  <g>
    <ellipse style="fill: #add8e6" cx="-50.0564" cy="6.94091" rx="87.9906" ry="38.7445"/>
    <ellipse style="fill: none; fill-opacity:0; stroke-width: 2; stroke: #000000" cx="-50.0564" cy="6.94091" rx="87.9906" ry="38.7445"/>
    <text font-size="19.7556" style="fill: #000000;text-anchor:middle;font-family:sans-serif;font-style:normal;font-weight:normal" x="-50.0564" y="1.99647">
      <tspan x="-50.0564" y="1.99647">Emotional &amp; </tspan>
      <tspan x="-50.0564" y="26.6909">mental health</tspan>
    </text>
  </g>
  <g>
    <ellipse style="fill: #add8e6" cx="519.538" cy="1.79944" rx="82.1303" ry="38.9424"/>
    <ellipse style="fill: none; fill-opacity:0; stroke-width: 2; stroke: #000000" cx="519.538" cy="1.79944" rx="82.1303" ry="38.9424"/>
    <text font-size="19.7556" style="fill: #000000;text-anchor:middle;font-family:sans-serif;font-style:normal;font-weight:normal" x="519.538" y="-3.145">
      <tspan x="519.538" y="-3.145">Social </tspan>
      <tspan x="519.538" y="21.5494">relationships</tspan>
    </text>
  </g>
  <g>
    <line style="fill: none; fill-opacity:0; stroke-width: 2; stroke: #6fb4ca" x1="431.876" y1="424.847" x2="915.126" y2="157.218"/>
    <polyline style="fill: none; fill-opacity:0; stroke-width: 2; stroke: #6fb4ca" points="910.756,165.353 917.082,156.135 905.911,156.605 "/>
  </g>
  <g>
    <polyline style="fill: none; fill-opacity:0; stroke-width: 2; stroke: #6fb4ca" points="366.831,420.073 366.831,332.376 -50.0564,332.376 -50.0564,51.1489 "/>
    <polyline style="fill: none; fill-opacity:0; stroke-width: 2; stroke: #6fb4ca" points="-45.0564,58.9129 -50.0564,48.9129 -55.0564,58.9129 "/>
  </g>
  <g>
    <line style="fill: none; fill-opacity:0; stroke-width: 2; stroke: #6fb4ca" x1="634.2" y1="397.23" x2="767.967" y2="39.5619"/>
    <polyline style="fill: none; fill-opacity:0; stroke-width: 2; stroke: #6fb4ca" points="769.93,48.5854 768.75,37.4675 760.564,45.0824 "/>
  </g>
  <g>
    <line style="fill: none; fill-opacity:0; stroke-width: 2; stroke: #4d4d4d" x1="474.192" y1="623.118" x2="591.323" y2="471.218"/>
    <polyline style="fill: none; fill-opacity:0; stroke-width: 2; stroke: #4d4d4d" points="590.542,480.419 592.689,469.447 582.623,474.313 "/>
  </g>
  <g>
    <line style="fill: none; fill-opacity:0; stroke-width: 2; stroke: #6fb4ca" x1="809.434" y1="447.618" x2="654.748" y2="143.129"/>
    <polyline style="fill: none; fill-opacity:0; stroke-width: 2; stroke: #6fb4ca" points="662.722,147.786 653.735,141.136 653.806,152.316 "/>
  </g>
  <g>
    <polyline style="fill: none; fill-opacity:0; stroke-width: 2; stroke: #6fb4ca" points="475.83,144.255 475.83,174.515 -50.0564,174.515 -50.0564,51.1486 "/>
    <polyline style="fill: none; fill-opacity:0; stroke-width: 2; stroke: #6fb4ca" points="480.83,152.019 475.83,142.019 470.83,152.019 "/>
    <polyline style="fill: none; fill-opacity:0; stroke-width: 2; stroke: #6fb4ca" points="-45.0564,58.9125 -50.0564,48.9125 -55.0564,58.9125 "/>
  </g>
  <g>
    <line style="fill: none; fill-opacity:0; stroke-width: 2; stroke: #6fb4ca" x1="-173.304" y1="417.906" x2="-63.1438" y2="50.5803"/>
    <polyline style="fill: none; fill-opacity:0; stroke-width: 2; stroke: #6fb4ca" points="-60.5848,59.4533 -62.5015,48.4385 -70.1633,56.5807 "/>
  </g>
  <g>
    <ellipse style="fill: #9cf0fb" cx="984.535" cy="118.778" rx="121.163" ry="42.3047"/>
    <ellipse style="fill: none; fill-opacity:0; stroke-width: 2; stroke: #000000" cx="984.535" cy="118.778" rx="121.163" ry="42.3047"/>
    <text font-size="19.7556" style="fill: #000000;text-anchor:middle;font-family:sans-serif;font-style:normal;font-weight:normal" x="984.535" y="113.834">
      <tspan x="984.535" y="113.834">Community learning </tspan>
      <tspan x="984.535" y="138.528">&amp; cooperation</tspan>
    </text>
  </g>
  <g>
    <ellipse style="fill: #f5ecfa" cx="-145.616" cy="645.857" rx="49.1474" ry="38.0191"/>
    <ellipse style="fill: none; fill-opacity:0; stroke-width: 2; stroke: #000000" cx="-145.616" cy="645.857" rx="49.1474" ry="38.0191"/>
    <text font-size="19.7556" style="fill: #000000;text-anchor:middle;font-family:sans-serif;font-style:normal;font-weight:normal" x="-145.616" y="640.913">
      <tspan x="-145.616" y="640.913">Total </tspan>
      <tspan x="-145.616" y="665.607">income</tspan>
    </text>
  </g>
  <g>
    <line style="fill: none; fill-opacity:0; stroke-width: 2; stroke: #4d4d4d" x1="-144.803" y1="606.851" x2="-142.878" y2="514.419"/>
    <polyline style="fill: none; fill-opacity:0; stroke-width: 2; stroke: #4d4d4d" points="-138.041,522.285 -142.831,512.183 -148.038,522.077 "/>
  </g>
  <g>
    <ellipse style="fill: #e6d1f5" cx="75.5019" cy="884.347" rx="80.0822" ry="59.9928"/>
    <ellipse style="fill: none; fill-opacity:0; stroke-width: 2; stroke: #000000" cx="75.5019" cy="884.347" rx="80.0822" ry="59.9928"/>
    <text font-size="19.7556" style="fill: #000000;text-anchor:middle;font-family:sans-serif;font-style:normal;font-weight:normal" x="75.5019" y="867.055">
      <tspan x="75.5019" y="867.055">Early season</tspan>
      <tspan x="75.5019" y="891.75">employment </tspan>
      <tspan x="75.5019" y="916.444">activity</tspan>
    </text>
  </g>
  <g>
    <line style="fill: none; fill-opacity:0; stroke-width: 2; stroke: #c282f0" x1="29.1569" y1="834.361" x2="-113.255" y2="680.76"/>
    <polyline style="fill: none; fill-opacity:0; stroke-width: 2; stroke: #c282f0" points="-104.31,683.054 -114.775,679.12 -111.643,689.853 "/>
  </g>
  <g>
    <line style="fill: none; fill-opacity:0; stroke-width: 2; stroke: #21d0e7" x1="593.06" y1="20.2951" x2="880.949" y2="92.7191"/>
    <polyline style="fill: none; fill-opacity:0; stroke-width: 2; stroke: #21d0e7" points="872.2,95.6739 883.118,93.2646 874.64,85.976 "/>
  </g>
  <g>
    <line style="fill: none; fill-opacity:0; stroke-width: 2; stroke: #6fb4ca" x1="-100.075" y1="420.112" x2="51.8441" y2="268.865"/>
    <polyline style="fill: none; fill-opacity:0; stroke-width: 2; stroke: #6fb4ca" points="49.8697,277.886 53.4288,267.288 42.8143,270.8 "/>
  </g>
  <g>
    <line style="fill: none; fill-opacity:0; stroke-width: 2; stroke: #6fb4ca" x1="602.638" y1="0.634046" x2="705.528" y2="-0.808872"/>
    <polyline style="fill: none; fill-opacity:0; stroke-width: 2; stroke: #6fb4ca" points="697.835,4.29951 707.763,-0.840228 697.694,-5.69951 "/>
  </g>
  <g>
    <ellipse style="fill: #d2ebf3" cx="88.3106" cy="433.083" rx="136.655" ry="47.0509"/>
    <ellipse style="fill: none; fill-opacity:0; stroke-width: 2; stroke: #000000" cx="88.3106" cy="433.083" rx="136.655" ry="47.0509"/>
    <text font-size="19.7556" style="fill: #000000;text-anchor:middle;font-family:sans-serif;font-style:normal;font-weight:normal" x="88.3106" y="428.138">
      <tspan x="88.3106" y="428.138">Shoreside infrastructure </tspan>
      <tspan x="88.3106" y="452.833">&amp; support services</tspan>
    </text>
  </g>
  <g>
    <ellipse style="fill: #d7f4fd" cx="-280.431" cy="283.233" rx="60.4754" ry="38.4727"/>
    <ellipse style="fill: none; fill-opacity:0; stroke-width: 2; stroke: #000000" cx="-280.431" cy="283.233" rx="60.4754" ry="38.4727"/>
    <text font-size="19.7556" style="fill: #000000;text-anchor:middle;font-family:sans-serif;font-style:normal;font-weight:normal" x="-280.431" y="278.288">
      <tspan x="-280.431" y="278.288">Physical </tspan>
      <tspan x="-280.431" y="302.983">health</tspan>
    </text>
  </g>
  <g>
    <ellipse style="fill: #d7f4fd" cx="-281.934" cy="415.813" rx="65.2659" ry="35.3774"/>
    <ellipse style="fill: none; fill-opacity:0; stroke-width: 2; stroke: #000000" cx="-281.934" cy="415.813" rx="65.2659" ry="35.3774"/>
    <text font-size="19.7556" style="fill: #000000;text-anchor:middle;font-family:sans-serif;font-style:normal;font-weight:normal" x="-281.934" y="410.869">
      <tspan x="-281.934" y="410.869">Physical </tspan>
      <tspan x="-281.934" y="435.563">safety</tspan>
    </text>
  </g>
  <g>
    <line style="fill: none; fill-opacity:0; stroke-width: 2; stroke: #6fb4ca" x1="-281.522" y1="379.496" x2="-280.928" y2="327.129"/>
    <polyline style="fill: none; fill-opacity:0; stroke-width: 2; stroke: #6fb4ca" points="-276.017,334.949 -280.903,324.893 -286.016,334.836 "/>
  </g>
  <g>
    <line style="fill: none; fill-opacity:0; stroke-width: 2; stroke: #6fb4ca" x1="-234.084" y1="390.793" x2="23.3814" y2="256.168"/>
    <polyline style="fill: none; fill-opacity:0; stroke-width: 2; stroke: #6fb4ca" points="18.8181,264.196 25.363,255.132 14.1845,255.334 "/>
  </g>
  <g>
    <ellipse style="fill: #d2ebf3" cx="778.646" cy="471.675" rx="80.4522" ry="26.0411"/>
    <ellipse style="fill: none; fill-opacity:0; stroke-width: 2; stroke: #000000" cx="778.646" cy="471.675" rx="80.4522" ry="26.0411"/>
    <text font-size="19.7556" style="fill: #000000;text-anchor:middle;font-family:sans-serif;font-style:normal;font-weight:normal" x="778.646" y="479.078">
      <tspan x="778.646" y="479.078">Subsistence</tspan>
    </text>
  </g>
  <g>
    <line style="fill: none; fill-opacity:0; stroke-width: 2; stroke: #4d4d4d" x1="496.603" y1="634.092" x2="734.511" y2="497.091"/>
    <polyline style="fill: none; fill-opacity:0; stroke-width: 2; stroke: #4d4d4d" points="730.278,505.299 736.448,495.975 725.287,496.633 "/>
  </g>
  <g>
    <ellipse style="fill: #d2ebf3" cx="1037.58" cy="393.95" rx="107.043" ry="49.4864"/>
    <ellipse style="fill: none; fill-opacity:0; stroke-width: 2; stroke: #000000" cx="1037.58" cy="393.95" rx="107.043" ry="49.4864"/>
    <text font-size="19.7556" style="fill: #000000;text-anchor:middle;font-family:sans-serif;font-style:normal;font-weight:normal" x="1037.58" y="376.659">
      <tspan x="1037.58" y="376.659">Trust in </tspan>
      <tspan x="1037.58" y="401.353">institutions &amp;</tspan>
      <tspan x="1037.58" y="426.048"> management</tspan>
    </text>
  </g>
  <g>
    <line style="fill: none; fill-opacity:0; stroke-width: 2; stroke: #6fb4ca" x1="1027.89" y1="343.682" x2="993.702" y2="166.333"/>
    <polyline style="fill: none; fill-opacity:0; stroke-width: 2; stroke: #6fb4ca" points="1000.08,173.01 993.279,164.137 990.262,174.903 "/>
  </g>
  <g>
    <line style="fill: none; fill-opacity:0; stroke-width: 2; stroke: #4d4d4d" x1="411.281" y1="851.53" x2="874.719" y2="468.689"/>
    <polyline style="fill: none; fill-opacity:0; stroke-width: 2; stroke: #4d4d4d" points="871.918,477.489 876.443,467.265 865.549,469.779 "/>
  </g>
  <g>
    <line style="fill: none; fill-opacity:0; stroke-width: 2; stroke: #4d4d4d" x1="-126.808" y1="610.732" x2="35.1612" y2="476.975"/>
    <path style="fill: #4d4d4d" d="M 35.1612 476.975 C 36.7531,478.902 36.4174,482.422 34.4897,484.014 C 32.5621,485.606 29.0425,485.27 27.4506,483.342 C 25.8587,481.415 26.1945,477.895 28.1221,476.303 C 30.0498,474.711 33.5693,475.047 35.1612,476.975z"/>
    <path style="fill: none; fill-opacity:0; stroke-width: 2; stroke: #4d4d4d" d="M 35.1612 476.975 C 36.7531,478.902 36.4174,482.422 34.4897,484.014 C 32.5621,485.606 29.0425,485.27 27.4506,483.342 C 25.8587,481.415 26.1945,477.895 28.1221,476.303 C 30.0498,474.711 33.5693,475.047 35.1612,476.975"/>
  </g>
  <g>
    <ellipse style="fill: #add8e6" cx="246.416" cy="4.94852" rx="89.2621" ry="37.3223"/>
    <ellipse style="fill: none; fill-opacity:0; stroke-width: 2; stroke: #000000" cx="246.416" cy="4.94852" rx="89.2621" ry="37.3223"/>
    <text font-size="19.7556" style="fill: #000000;text-anchor:middle;font-family:sans-serif;font-style:normal;font-weight:normal" x="246.416" y="0.00407664">
      <tspan x="246.416" y="0.00407664">Livelihood &amp; </tspan>
      <tspan x="246.416" y="24.6985">activities</tspan>
    </text>
  </g>
  <g>
    <ellipse style="fill: #add8e6" cx="783.474" cy="-1.90199" rx="72.5181" ry="36.9982"/>
    <ellipse style="fill: none; fill-opacity:0; stroke-width: 2; stroke: #000000" cx="783.474" cy="-1.90199" rx="72.5181" ry="36.9982"/>
    <text font-size="19.7556" style="fill: #000000;text-anchor:middle;font-family:sans-serif;font-style:normal;font-weight:normal" x="783.474" y="-6.84644">
      <tspan x="783.474" y="-6.84644">Culture &amp; </tspan>
      <tspan x="783.474" y="17.848">Identity</tspan>
    </text>
  </g>
  <g>
    <line style="fill: none; fill-opacity:0; stroke-width: 2; stroke: #6fb4ca" x1="896.958" y1="420.027" x2="794.741" y2="39.9881"/>
    <polyline style="fill: none; fill-opacity:0; stroke-width: 2; stroke: #6fb4ca" points="801.586,46.1869 794.16,37.8288 791.929,48.7842 "/>
  </g>
  <g>
    <ellipse style="fill: #9cf0fb" cx="475.83" cy="113.405" rx="69.1763" ry="25.4893"/>
    <ellipse style="fill: none; fill-opacity:0; stroke-width: 2; stroke: #000000" cx="475.83" cy="113.405" rx="69.1763" ry="25.4893"/>
    <text font-size="19.7556" style="fill: #000000;text-anchor:middle;font-family:sans-serif;font-style:normal;font-weight:normal" x="475.83" y="120.808">
      <tspan x="475.83" y="120.808">Family</tspan>
    </text>
  </g>
  <g>
    <ellipse style="fill: #9cf0fb" cx="639.576" cy="113.266" rx="69.1763" ry="25.4893"/>
    <ellipse style="fill: none; fill-opacity:0; stroke-width: 2; stroke: #000000" cx="639.576" cy="113.266" rx="69.1763" ry="25.4893"/>
    <text font-size="19.7556" style="fill: #000000;text-anchor:middle;font-family:sans-serif;font-style:normal;font-weight:normal" x="639.576" y="120.668">
      <tspan x="639.576" y="120.668">Community</tspan>
    </text>
  </g>
  <g>
    <line style="fill: none; fill-opacity:0; stroke-width: 2; stroke: #21d0e7" x1="639.576" y1="87.7764" x2="569.316" y2="37.453"/>
    <polyline style="fill: none; fill-opacity:0; stroke-width: 2; stroke: #21d0e7" points="578.54,37.909 567.499,36.151 572.717,46.0388 "/>
  </g>
  <g>
    <line style="fill: none; fill-opacity:0; stroke-width: 2; stroke: #21d0e7" x1="486.077" y1="87.2405" x2="502.712" y2="44.764"/>
    <polyline style="fill: none; fill-opacity:0; stroke-width: 2; stroke: #21d0e7" points="504.537,53.8166 503.528,42.6819 495.225,50.17 "/>
  </g>
  <g>
    <line style="fill: none; fill-opacity:0; stroke-width: 2; stroke: #6fb4ca" x1="809.434" y1="447.618" x2="292.633" y2="41.2864"/>
    <polyline style="fill: none; fill-opacity:0; stroke-width: 2; stroke: #6fb4ca" points="301.827,42.1545 290.876,39.9043 295.646,50.0157 "/>
  </g>
  <g>
    <ellipse style="fill: #add8e6" cx="1026.29" cy="-1.515" rx="117.786" ry="45.6038"/>
    <ellipse style="fill: none; fill-opacity:0; stroke-width: 2; stroke: #000000" cx="1026.29" cy="-1.515" rx="117.786" ry="45.6038"/>
    <text font-size="19.7556" style="fill: #000000;text-anchor:middle;font-family:sans-serif;font-style:normal;font-weight:normal" x="1026.29" y="-6.45944">
      <tspan x="1026.29" y="-6.45944">Tangible connections</tspan>
      <tspan x="1026.29" y="18.235">to nature</tspan>
    </text>
  </g>
  <g>
    <line style="fill: none; fill-opacity:0; stroke-width: 2; stroke: #6fb4ca" x1="170.729" y1="394.896" x2="945.799" y2="35.7803"/>
    <polyline style="fill: none; fill-opacity:0; stroke-width: 2; stroke: #6fb4ca" points="940.856,43.5809 947.828,34.8402 936.652,34.5075 "/>
  </g>
  <g>
    <ellipse style="fill: #d7f4fd" cx="285.571" cy="221.032" rx="53.5793" ry="35.2062"/>
    <ellipse style="fill: none; fill-opacity:0; stroke-width: 2; stroke: #000000" cx="285.571" cy="221.032" rx="53.5793" ry="35.2062"/>
    <text font-size="19.7556" style="fill: #000000;text-anchor:middle;font-family:sans-serif;font-style:normal;font-weight:normal" x="285.571" y="216.088">
      <tspan x="285.571" y="216.088">Job </tspan>
      <tspan x="285.571" y="240.782">quality</tspan>
    </text>
  </g>
  <g>
    <line style="fill: none; fill-opacity:0; stroke-width: 2; stroke: #6fb4ca" x1="279.059" y1="185.093" x2="254.136" y2="47.55"/>
    <polyline style="fill: none; fill-opacity:0; stroke-width: 2; stroke: #6fb4ca" points="260.44,54.2981 253.737,45.3498 250.6,56.0811 "/>
  </g>
  <g>
    <line style="fill: none; fill-opacity:0; stroke-width: 2; stroke: #6fb4ca" x1="111.987" y1="185.253" x2="216.589" y2="44.9543"/>
    <polyline style="fill: none; fill-opacity:0; stroke-width: 2; stroke: #6fb4ca" points="215.957,54.1673 217.926,43.1616 207.94,48.19 "/>
  </g>
  <g>
    <line style="fill: none; fill-opacity:0; stroke-width: 2; stroke-dasharray: 4; stroke: #6fb4ca" x1="-225.847" y1="396.563" x2="237.139" y2="237.655"/>
    <path style="fill: #6fb4ca" d="M 237.139 237.655 C 237.951,240.02 236.398,243.196 234.033,244.007 C 231.668,244.819 228.492,243.266 227.681,240.901 C 226.869,238.537 228.422,235.361 230.787,234.549 C 233.151,233.737 236.327,235.29 237.139,237.655z"/>
    <path style="fill: none; fill-opacity:0; stroke-width: 2; stroke: #6fb4ca" d="M 237.139 237.655 C 237.951,240.02 236.398,243.196 234.033,244.007 C 231.668,244.819 228.492,243.266 227.681,240.901 C 226.869,238.537 228.422,235.361 230.787,234.549 C 233.151,233.737 236.327,235.29 237.139,237.655"/>
  </g>
  <g>
    <line style="fill: none; fill-opacity:0; stroke-width: 2; stroke: #6fb4ca" x1="-251.458" y1="248.485" x2="-83.8896" y2="47.5176"/>
    <polyline style="fill: none; fill-opacity:0; stroke-width: 2; stroke: #6fb4ca" points="-85.0214,56.6826 -82.4576,45.8002 -92.7018,50.2786 "/>
  </g>
  <g>
    <line style="fill: none; fill-opacity:0; stroke-width: 2; stroke-dasharray: 4; stroke: #4d4d4d" x1="125.857" y1="610.97" x2="303.873" y2="500.086"/>
    <polyline style="fill: none; fill-opacity:0; stroke-width: 2; stroke: #4d4d4d" points="299.926,508.435 305.771,498.904 294.639,499.947 "/>
  </g>
  <g>
    <line style="fill: none; fill-opacity:0; stroke-width: 2; stroke: #6fb4ca" x1="622.957" y1="396.949" x2="637.764" y2="144.206"/>
    <polyline style="fill: none; fill-opacity:0; stroke-width: 2; stroke: #6fb4ca" points="642.301,152.249 637.895,141.974 632.318,151.664 "/>
  </g>
  <g>
    <ellipse style="fill: #000000" cx="760.812" cy="879.228" rx="54.9457" ry="46.9918"/>
    <ellipse style="fill: none; fill-opacity:0; stroke-width: 2; stroke: #ff0000" cx="760.812" cy="879.228" rx="54.9457" ry="46.9918"/>
    <text font-size="31.0444" style="fill: #ffffff;text-anchor:middle;font-family:sans-serif;font-style:normal;font-weight:normal" x="760.812" y="890.875">
      <tspan x="760.812" y="890.875">HAB</tspan>
    </text>
  </g>
  <g>
    <line style="fill: none; fill-opacity:0; stroke-width: 6; stroke: #ff0000" x1="704.923" y1="881.429" x2="454.632" y2="891.285"/>
    <path style="fill: #ff0000" d="M 454.632 891.285 C 454.533,888.787 456.933,886.191 459.431,886.093 C 461.929,885.994 464.525,888.394 464.624,890.892 C 464.722,893.39 462.322,895.986 459.824,896.085 C 457.326,896.183 454.73,893.783 454.632,891.285z"/>
    <path style="fill: none; fill-opacity:0; stroke-width: 6; stroke: #ff0000" d="M 454.632 891.285 C 454.533,888.787 456.933,886.191 459.431,886.093 C 461.929,885.994 464.525,888.394 464.624,890.892 C 464.722,893.39 462.322,895.986 459.824,896.085 C 457.326,896.183 454.73,893.783 454.632,891.285"/>
  </g>
  <g>
    <ellipse style="fill: #e6d1f5" cx="-114.096" cy="884.392" rx="89.9178" ry="63.9905"/>
    <ellipse style="fill: none; fill-opacity:0; stroke-width: 2; stroke: #000000" cx="-114.096" cy="884.392" rx="89.9178" ry="63.9905"/>
    <text font-size="19.7556" style="fill: #000000;text-anchor:middle;font-family:sans-serif;font-style:normal;font-weight:normal" x="-114.096" y="867.101">
      <tspan x="-114.096" y="867.101">Late season</tspan>
      <tspan x="-114.096" y="891.795">employment </tspan>
      <tspan x="-114.096" y="916.49">activity</tspan>
    </text>
  </g>
  <g>
    <line style="fill: none; fill-opacity:0; stroke-width: 2; stroke: #c282f0" x1="-122.646" y1="819.685" x2="-139.903" y2="689.091"/>
    <polyline style="fill: none; fill-opacity:0; stroke-width: 2; stroke: #c282f0" points="-133.929,696.133 -140.196,686.874 -143.843,697.443 "/>
  </g>
  <g>
    <ellipse style="fill: #f5ecfa" cx="96.2923" cy="668.816" rx="77.2566" ry="62.6122"/>
    <ellipse style="fill: none; fill-opacity:0; stroke-width: 2; stroke: #000000" cx="96.2923" cy="668.816" rx="77.2566" ry="62.6122"/>
    <text font-size="19.7556" style="fill: #000000;text-anchor:middle;font-family:sans-serif;font-style:normal;font-weight:normal" x="96.2923" y="651.525">
      <tspan x="96.2923" y="651.525">Total </tspan>
      <tspan x="96.2923" y="676.219">employment </tspan>
      <tspan x="96.2923" y="700.913">activity</tspan>
    </text>
  </g>
  <g>
    <line style="fill: none; fill-opacity:0; stroke-width: 2; stroke: #c282f0" x1="-62.109" y1="831.123" x2="44.5459" y2="721.839"/>
    <polyline style="fill: none; fill-opacity:0; stroke-width: 2; stroke: #c282f0" points="42.7016,730.887 46.1077,720.238 35.5449,723.903 "/>
  </g>
  <g>
    <line style="fill: none; fill-opacity:0; stroke-width: 2; stroke: #c282f0" x1="81.3702" y1="823.512" x2="89.7453" y2="736.688"/>
    <polyline style="fill: none; fill-opacity:0; stroke-width: 2; stroke: #c282f0" points="93.9767,744.896 89.96,734.462 84.023,743.936 "/>
  </g>
  <g>
    <line style="fill: none; fill-opacity:0; stroke-width: 2; stroke: #4d4d4d" x1="359.57" y1="842.9" x2="365.971" y2="506.1"/>
    <polyline style="fill: none; fill-opacity:0; stroke-width: 2; stroke: #4d4d4d" points="370.823,513.958 366.014,503.865 360.825,513.768 "/>
  </g>
  <g>
    <ellipse style="fill: #d8f1e3" cx="198.424" cy="1029.43" rx="71.7893" ry="58.0905"/>
    <ellipse style="fill: none; fill-opacity:0; stroke-width: 2; stroke: #000000" cx="198.424" cy="1029.43" rx="71.7893" ry="58.0905"/>
    <text font-size="19.7556" style="fill: #000000;text-anchor:middle;font-family:sans-serif;font-style:normal;font-weight:normal" x="198.424" y="1012.13">
      <tspan x="198.424" y="1012.13">Target </tspan>
      <tspan x="198.424" y="1036.83">species </tspan>
      <tspan x="198.424" y="1061.52">abundance</tspan>
    </text>
  </g>
  <g>
    <line style="fill: none; fill-opacity:0; stroke-width: 2; stroke: #4d4d4d" x1="249.029" y1="986.972" x2="303.007" y2="941.688"/>
    <path style="fill: #4d4d4d" d="M 249.029 986.972 C 247.422,985.057 247.731,981.535 249.646,979.928 C 251.561,978.321 255.083,978.63 256.69,980.545 C 258.297,982.46 257.989,985.982 256.073,987.589 C 254.158,989.196 250.636,988.887 249.029,986.972z"/>
    <path style="fill: none; fill-opacity:0; stroke-width: 2; stroke: #4d4d4d" d="M 249.029 986.972 C 247.422,985.057 247.731,981.535 249.646,979.928 C 251.561,978.321 255.083,978.63 256.69,980.545 C 258.297,982.46 257.989,985.982 256.073,987.589 C 254.158,989.196 250.636,988.887 249.029,986.972"/>
    <polyline style="fill: none; fill-opacity:0; stroke-width: 2; stroke: #4d4d4d" points="300.273,950.509 304.72,940.251 293.845,942.848 "/>
  </g>
  <g>
    <line style="fill: none; fill-opacity:0; stroke-width: 2; stroke: #4d4d4d" x1="389.085" y1="631.736" x2="156.042" y2="477.818"/>
    <polyline style="fill: none; fill-opacity:0; stroke-width: 2; stroke: #4d4d4d" points="165.276,477.925 154.177,476.586 159.765,486.269 "/>
  </g>
  <g>
    <polyline style="fill: none; fill-opacity:0; stroke-width: 2; stroke: #6fb4ca" points="903.624,419.751 903.624,319.098 -50.0564,319.098 -50.0564,50.1575 "/>
    <polyline style="fill: none; fill-opacity:0; stroke-width: 2; stroke: #6fb4ca" points="-45.0564,57.9215 -50.0564,47.9215 -55.0564,57.9215 "/>
  </g>
  <g>
    <rect style="fill: none; fill-opacity:0; stroke-width: 2; stroke: #ffffff" x="171.173" y="560.056" width="58.05" height="53.75"/>
    <text font-size="22.5778" style="fill: #6c6a6a;text-anchor:middle;font-family:sans-serif;font-style:normal;font-weight:normal" x="200.198" y="595.42">
      <tspan x="200.198" y="595.42">[U]</tspan>
    </text>
  </g>
  <g>
    <rect style="fill: none; fill-opacity:0; stroke-width: 2; stroke: #ffffff" x="167.009" y="240.872" width="58.05" height="53.75"/>
    <text font-size="22.5778" style="fill: #6fb4ca;text-anchor:middle;font-family:sans-serif;font-style:normal;font-weight:normal" x="196.034" y="276.236">
      <tspan x="196.034" y="276.236">[U]</tspan>
    </text>
  </g>
</svg>
